# MagicaVoxel @ Ephtracy

# group
o 

# material
mtllib robo salesman.mtl
usemtl palette

# normals
vn -1 0 0
vn 1 0 0
vn 0 0 1
vn 0 0 -1
vn 0 -1 0
vn 0 1 0

# texcoords
vt 0.00195312 0.5
vt 0.00585938 0.5
vt 0.0175781 0.5
vt 0.0332031 0.5

# verts
v -0.2 1.2 0.3
v -0.2 1.2 -0.3
v -0.2 1.7 0.3
v -0.2 1.7 -0.3
v -0.1 0 0.3
v -0.1 0 0.1
v -0.1 0 -0.1
v -0.1 0 -0.3
v -0.1 0.3 0.1
v -0.1 0.3 -0.1
v -0.1 0.4 0.1
v -0.1 0.4 -0.1
v -0.1 0.9 0.6
v -0.1 0.9 0.3
v -0.1 0.9 0.1
v -0.1 0.9 -0.1
v -0.1 0.9 -0.3
v -0.1 0.9 -0.6
v -0.1 1.1 0.6
v -0.1 1.1 0.3
v -0.1 1.1 0.1
v -0.1 1.1 -0.1
v -0.1 1.1 -0.3
v -0.1 1.1 -0.6
v -0.1 1.2 0.3
v -0.1 1.2 0.1
v -0.1 1.2 -0.1
v -0.1 1.2 -0.3
v 0.1 0 0.3
v 0.1 0 0.1
v 0.1 0 -0.1
v 0.1 0 -0.3
v 0.1 0.3 0.3
v 0.1 0.3 0.1
v 0.1 0.3 -0.1
v 0.1 0.3 -0.3
v 0.2 0.3 0.3
v 0.2 0.3 -0.3
v 0.2 0.4 0.1
v 0.2 0.4 -0.1
v 0.2 0.9 0.6
v 0.2 0.9 0.3
v 0.2 0.9 0.1
v 0.2 0.9 -0.1
v 0.2 0.9 -0.3
v 0.2 0.9 -0.6
v 0.2 1.1 0.6
v 0.2 1.1 0.3
v 0.2 1.1 0.1
v 0.2 1.1 -0.1
v 0.2 1.1 -0.3
v 0.2 1.1 -0.6
v 0.2 1.2 0.3
v 0.2 1.2 0.2
v 0.2 1.2 0.1
v 0.2 1.2 5.96046e-08
v 0.2 1.2 -0.1
v 0.2 1.2 -0.2
v 0.2 1.2 -0.3
v 0.3 1.2 0.3
v 0.3 1.2 0.2
v 0.3 1.2 0.1
v 0.3 1.2 5.96046e-08
v 0.3 1.2 -0.1
v 0.3 1.2 -0.2
v 0.3 1.2 -0.3
v 0.3 1.3 0.3
v 0.3 1.3 0.2
v 0.3 1.3 0.1
v 0.3 1.3 5.96046e-08
v 0.3 1.3 -0.1
v 0.3 1.3 -0.2
v 0.3 1.3 -0.3
v 0.3 1.4 0.3
v 0.3 1.4 0.2
v 0.3 1.4 0.1
v 0.3 1.4 5.96046e-08
v 0.3 1.4 -0.1
v 0.3 1.4 -0.2
v 0.3 1.5 0.2
v 0.3 1.5 0.1
v 0.3 1.5 -0.1
v 0.3 1.5 -0.2
v 0.3 1.6 0.2
v 0.3 1.6 0.1
v 0.3 1.6 -0.1
v 0.3 1.6 -0.2
v 0.3 1.7 0.3
v 0.3 1.7 -0.3
v -0.1 0.9 0.6
v -0.1 1.1 0.6
v 0.2 0.9 0.6
v 0.2 1.1 0.6
v -0.2 1.2 0.3
v -0.2 1.7 0.3
v -0.1 0 0.3
v -0.1 0.9 0.3
v -0.1 1.1 0.3
v -0.1 1.2 0.3
v 0.1 0 0.3
v 0.1 0.3 0.3
v 0.2 0.3 0.3
v 0.2 0.9 0.3
v 0.2 1.1 0.3
v 0.2 1.2 0.3
v 0.2 1.3 0.3
v 0.2 1.4 0.3
v 0.3 1.2 0.3
v 0.3 1.3 0.3
v 0.3 1.4 0.3
v 0.3 1.7 0.3
v -0.1 0 -0.1
v -0.1 0.3 -0.1
v 0.1 0 -0.1
v 0.1 0.3 -0.1
v -0.1 0 0.1
v -0.1 0.3 0.1
v 0.1 0 0.1
v 0.1 0.3 0.1
v -0.2 1.2 -0.3
v -0.2 1.7 -0.3
v -0.1 0 -0.3
v -0.1 0.9 -0.3
v -0.1 1.1 -0.3
v -0.1 1.2 -0.3
v 0.1 0 -0.3
v 0.1 0.3 -0.3
v 0.2 0.3 -0.3
v 0.2 0.9 -0.3
v 0.2 1.1 -0.3
v 0.2 1.2 -0.3
v 0.2 1.3 -0.3
v 0.3 1.2 -0.3
v 0.3 1.3 -0.3
v 0.3 1.7 -0.3
v -0.1 0.9 -0.6
v -0.1 1.1 -0.6
v 0.2 0.9 -0.6
v 0.2 1.1 -0.6
v -0.1 0 0.3
v 0.1 0 0.3
v -0.1 0 0.1
v 0.1 0 0.1
v -0.1 0 -0.1
v 0.1 0 -0.1
v -0.1 0 -0.3
v 0.1 0 -0.3
v 0.1 0.3 0.3
v 0.2 0.3 0.3
v -0.1 0.3 0.1
v 0.1 0.3 0.1
v -0.1 0.3 -0.1
v 0.1 0.3 -0.1
v 0.1 0.3 -0.3
v 0.2 0.3 -0.3
v -0.1 0.9 0.6
v 0.2 0.9 0.6
v -0.1 0.9 0.3
v 0.2 0.9 0.3
v -0.1 0.9 -0.3
v 0.2 0.9 -0.3
v -0.1 0.9 -0.6
v 0.2 0.9 -0.6
v -0.2 1.2 0.3
v -0.1 1.2 0.3
v 0.2 1.2 0.3
v 0.3 1.2 0.3
v 0.2 1.2 0.2
v 0.3 1.2 0.2
v -0.1 1.2 0.1
v 0.2 1.2 0.1
v 0.3 1.2 0.1
v 0.2 1.2 5.96046e-08
v 0.3 1.2 5.96046e-08
v -0.1 1.2 -0.1
v 0.2 1.2 -0.1
v 0.3 1.2 -0.1
v 0.2 1.2 -0.2
v 0.3 1.2 -0.2
v -0.2 1.2 -0.3
v -0.1 1.2 -0.3
v 0.2 1.2 -0.3
v 0.3 1.2 -0.3
v -0.1 1.1 0.6
v 0.2 1.1 0.6
v -0.1 1.1 0.3
v 0.2 1.1 0.3
v -0.1 1.1 -0.3
v 0.2 1.1 -0.3
v -0.1 1.1 -0.6
v 0.2 1.1 -0.6
v -0.2 1.7 0.3
v 0.3 1.7 0.3
v -0.2 1.7 -0.3
v 0.3 1.7 -0.3

# faces
f 3/2/1 2/2/1 1/2/1
f 4/2/1 2/2/1 3/2/1
f 9/3/1 6/3/1 5/3/1
f 10/3/1 8/3/1 7/3/1
f 11/3/1 9/3/1 5/3/1
f 11/3/1 10/3/1 9/3/1
f 12/3/1 8/3/1 10/3/1
f 12/3/1 10/3/1 11/3/1
f 14/3/1 11/3/1 5/3/1
f 15/4/1 12/4/1 11/4/1
f 15/3/1 11/3/1 14/3/1
f 16/3/1 8/3/1 12/3/1
f 16/4/1 12/4/1 15/4/1
f 17/3/1 8/3/1 16/3/1
f 19/3/1 15/3/1 14/3/1
f 19/3/1 14/3/1 13/3/1
f 20/3/1 15/3/1 19/3/1
f 21/1/1 16/1/1 15/1/1
f 21/3/1 15/3/1 20/3/1
f 22/3/1 18/3/1 17/3/1
f 22/1/1 16/1/1 21/1/1
f 22/3/1 17/3/1 16/3/1
f 23/3/1 18/3/1 22/3/1
f 24/3/1 18/3/1 23/3/1
f 25/3/1 21/3/1 20/3/1
f 26/4/1 22/4/1 21/4/1
f 26/3/1 21/3/1 25/3/1
f 27/3/1 23/3/1 22/3/1
f 27/4/1 22/4/1 26/4/1
f 28/3/1 23/3/1 27/3/1
f 29/3/2 30/3/2 33/3/2
f 33/3/2 30/3/2 34/3/2
f 31/3/2 32/3/2 35/3/2
f 35/3/2 32/3/2 36/3/2
f 37/3/2 38/3/2 39/3/2
f 39/3/2 38/3/2 40/3/2
f 37/3/2 39/3/2 42/3/2
f 39/4/2 40/4/2 43/4/2
f 42/3/2 39/3/2 43/3/2
f 40/3/2 38/3/2 44/3/2
f 43/4/2 40/4/2 44/4/2
f 44/3/2 38/3/2 45/3/2
f 42/3/2 43/3/2 47/3/2
f 41/3/2 42/3/2 47/3/2
f 47/3/2 43/3/2 48/3/2
f 43/1/2 44/1/2 49/1/2
f 48/3/2 43/3/2 49/3/2
f 45/3/2 46/3/2 50/3/2
f 49/1/2 44/1/2 50/1/2
f 44/3/2 45/3/2 50/3/2
f 50/3/2 46/3/2 51/3/2
f 51/3/2 46/3/2 52/3/2
f 48/3/2 49/3/2 53/3/2
f 53/3/2 49/3/2 54/3/2
f 49/4/2 50/4/2 55/4/2
f 54/3/2 49/3/2 55/3/2
f 55/4/2 50/4/2 56/4/2
f 50/3/2 51/3/2 57/3/2
f 56/4/2 50/4/2 57/4/2
f 57/3/2 51/3/2 58/3/2
f 58/3/2 51/3/2 59/3/2
f 60/2/2 61/2/2 67/2/2
f 61/1/2 62/1/2 68/1/2
f 67/2/2 61/2/2 68/2/2
f 62/2/2 63/2/2 69/2/2
f 68/1/2 62/1/2 69/1/2
f 63/1/2 64/1/2 70/1/2
f 69/2/2 63/2/2 70/2/2
f 64/2/2 65/2/2 71/2/2
f 70/1/2 64/1/2 71/1/2
f 65/1/2 66/1/2 72/1/2
f 71/2/2 65/2/2 72/2/2
f 72/1/2 66/1/2 73/1/2
f 67/1/2 68/1/2 74/1/2
f 68/2/2 69/2/2 75/2/2
f 74/1/2 68/1/2 75/1/2
f 69/1/2 70/1/2 76/1/2
f 75/2/2 69/2/2 76/2/2
f 70/2/2 71/2/2 77/2/2
f 76/1/2 70/1/2 77/1/2
f 71/1/2 72/1/2 78/1/2
f 77/2/2 71/2/2 78/2/2
f 72/2/2 73/2/2 79/2/2
f 78/1/2 72/1/2 79/1/2
f 75/2/2 76/2/2 80/2/2
f 74/2/2 75/2/2 80/2/2
f 78/2/2 79/2/2 80/2/2
f 77/2/2 78/2/2 80/2/2
f 76/2/2 77/2/2 80/2/2
f 80/2/2 79/2/2 81/2/2
f 81/2/2 79/2/2 82/2/2
f 79/2/2 73/2/2 83/2/2
f 82/2/2 79/2/2 83/2/2
f 74/2/2 80/2/2 84/2/2
f 80/1/2 81/1/2 84/1/2
f 81/2/2 82/2/2 85/2/2
f 84/1/2 81/1/2 85/1/2
f 82/1/2 83/1/2 86/1/2
f 85/2/2 82/2/2 86/2/2
f 83/2/2 73/2/2 87/2/2
f 86/1/2 83/1/2 87/1/2
f 74/2/2 84/2/2 88/2/2
f 85/2/2 86/2/2 88/2/2
f 86/2/2 87/2/2 88/2/2
f 84/2/2 85/2/2 88/2/2
f 87/2/2 73/2/2 89/2/2
f 88/2/2 87/2/2 89/2/2
f 92/3/3 91/3/3 90/3/3
f 93/3/3 91/3/3 92/3/3
f 99/2/3 95/2/3 94/2/3
f 100/3/3 97/3/3 96/3/3
f 101/3/3 97/3/3 100/3/3
f 102/3/3 97/3/3 101/3/3
f 103/3/3 97/3/3 102/3/3
f 104/3/3 99/3/3 98/3/3
f 105/2/3 95/2/3 99/2/3
f 105/3/3 99/3/3 104/3/3
f 106/2/3 95/2/3 105/2/3
f 107/2/3 95/2/3 106/2/3
f 108/2/3 106/2/3 105/2/3
f 109/1/3 107/1/3 106/1/3
f 109/2/3 106/2/3 108/2/3
f 110/2/3 95/2/3 107/2/3
f 110/1/3 107/1/3 109/1/3
f 111/2/3 95/2/3 110/2/3
f 114/3/3 113/3/3 112/3/3
f 115/3/3 113/3/3 114/3/3
f 116/3/4 117/3/4 118/3/4
f 118/3/4 117/3/4 119/3/4
f 120/2/4 121/2/4 125/2/4
f 122/3/4 123/3/4 126/3/4
f 126/3/4 123/3/4 127/3/4
f 127/3/4 123/3/4 128/3/4
f 128/3/4 123/3/4 129/3/4
f 124/3/4 125/3/4 130/3/4
f 125/2/4 121/2/4 131/2/4
f 130/3/4 125/3/4 131/3/4
f 131/2/4 121/2/4 132/2/4
f 131/1/4 132/1/4 133/1/4
f 132/2/4 121/2/4 134/2/4
f 133/1/4 132/1/4 134/1/4
f 134/2/4 121/2/4 135/2/4
f 136/3/4 137/3/4 138/3/4
f 138/3/4 137/3/4 139/3/4
f 142/3/5 141/3/5 140/3/5
f 143/3/5 141/3/5 142/3/5
f 146/3/5 145/3/5 144/3/5
f 147/3/5 145/3/5 146/3/5
f 151/3/5 149/3/5 148/3/5
f 152/3/5 151/3/5 150/3/5
f 153/3/5 149/3/5 151/3/5
f 153/3/5 151/3/5 152/3/5
f 154/3/5 149/3/5 153/3/5
f 155/3/5 149/3/5 154/3/5
f 158/3/5 157/3/5 156/3/5
f 159/3/5 157/3/5 158/3/5
f 162/3/5 161/3/5 160/3/5
f 163/3/5 161/3/5 162/3/5
f 168/2/5 167/2/5 166/2/5
f 169/2/5 167/2/5 168/2/5
f 170/2/5 165/2/5 164/2/5
f 171/1/5 169/1/5 168/1/5
f 172/1/5 169/1/5 171/1/5
f 173/2/5 172/2/5 171/2/5
f 174/2/5 172/2/5 173/2/5
f 175/2/5 170/2/5 164/2/5
f 176/1/5 174/1/5 173/1/5
f 177/1/5 174/1/5 176/1/5
f 178/2/5 177/2/5 176/2/5
f 179/2/5 177/2/5 178/2/5
f 180/2/5 175/2/5 164/2/5
f 181/2/5 175/2/5 180/2/5
f 182/1/5 179/1/5 178/1/5
f 183/1/5 179/1/5 182/1/5
f 184/3/6 185/3/6 186/3/6
f 186/3/6 185/3/6 187/3/6
f 188/3/6 189/3/6 190/3/6
f 190/3/6 189/3/6 191/3/6
f 192/2/6 193/2/6 194/2/6
f 194/2/6 193/2/6 195/2/6
